<svg width="200" height="200" version="1.1" xmlns="http://www.w3.org/2000/svg" desc="Created with imagetracer.js version 1.2.6" ><path fill="rgb(125,224,230)" stroke="rgb(125,224,230)" stroke-width="1" opacity="1" d="M 0 0 L 131 0.5 L 130 4 L 140.5 7 L 142 4.5 L 133 0.5 L 155.5 0 L 149 7.5 L 144 16.5 L 141.5 27 L 138.5 26 L 137 26.5 L 136.5 25 L 124.5 25 L 120.5 27 L 118.5 26 L 115.5 27 L 113.5 26 L 110.5 27 L 108.5 26 L 105.5 27 L 103.5 26 L 100.5 27 L 98.5 26 L 95.5 27 L 93.5 26 L 90.5 27 L 88.5 26 L 85.5 27 L 83.5 26 L 80.5 27 L 78.5 26 L 75.5 27 L 73.5 26 L 70.5 27 L 68.5 26 L 65.5 27 L 63.5 26 L 60.5 27 L 58.5 26 L 55.5 27 L 52.5 26 L 50.5 27 L 47.5 26 L 45.5 27 L 42.5 26 L 39.5 27 L 37.5 26 L 34.5 27 L 32.5 26 L 29.5 27 L 27.5 26 L 24.5 27 L 22.5 26 L 19.5 27 L 17.5 26 L 14.5 27 L 12.5 26 L 9.5 27 L 7.5 26 L 4.5 27 L 2.5 26 L 0 27 L 0 0 Z M 127 12 L 125 15 Q 129 18 137 18 L 138 16 Q 135 11 127 12 Z " /><path fill="rgb(125,224,230)" stroke="rgb(125,224,230)" stroke-width="1" opacity="1" d="M 20.5 130 L 43.5 131 L 57 135.5 L 49.5 140 L 45.5 140 L 38.5 138 L 17.5 138 L 0 143 L 0 135.5 L 1.5 135 L 5.5 133 L 20.5 130 Z " /><path fill="rgb(125,224,230)" stroke="rgb(125,224,230)" stroke-width="1" opacity="1" d="M 163.5 130 L 186.5 131 L 200 135 L 200 142.5 L 198.5 143 L 182.5 138 L 161.5 138 L 150.5 140 L 143 135.5 L 148.5 133 L 163.5 130 Z " /><path fill="rgb(1,110,126)" stroke="rgb(1,110,126)" stroke-width="1" opacity="1" d="M 17.5 138 L 38.5 138 L 48 140.5 Q 35.3 147.8 26 158.5 L 10 181.5 L 4 196.5 L 4 200 L 0 199.5 L 0 143 L 17.5 138 Z " /><path fill="rgb(1,110,126)" stroke="rgb(1,110,126)" stroke-width="1" opacity="1" d="M 161.5 138 L 182.5 138 L 200 143 L 200 199.5 L 197.5 200 L 185 172.5 Q 176.7 158.8 164.5 149 L 152 140.5 L 161.5 138 Z " /><path fill="rgb(222,246,193)" stroke="rgb(222,246,193)" stroke-width="1" opacity="1" d="M 142.5 24 L 143 26.5 L 142 30.5 L 145 42.5 L 150 52 L 139 51.5 L 142 49.5 L 140.5 46 L 136.5 47 L 129.5 52 L 102.5 52 Q 95.5 45.2 83 45 L 85 36 Q 68.4 35 62 45.5 L 59.5 52 Q 55 45.5 44.5 45 L 36.5 47 L 28.5 52 L 0 52 L 0 27.5 L 1.5 27 L 3.5 26 L 6.5 27 L 8.5 26 L 11.5 27 L 13.5 26 L 16.5 27 L 18.5 26 L 21.5 27 L 23.5 26 L 26.5 27 L 28.5 26 L 31.5 27 L 33.5 26 L 36.5 27 L 38.5 26 L 41.5 27 L 44.5 26 L 46.5 27 L 49.5 26 L 51.5 27 L 54.5 26 L 57.5 27 L 59.5 26 L 62.5 27 L 64.5 26 L 67.5 27 L 69.5 26 L 72.5 27 L 74.5 26 L 77.5 27 L 79.5 26 L 82.5 27 L 84.5 26 L 87.5 27 L 89.5 26 L 92.5 27 L 94.5 26 L 97.5 27 L 99.5 26 L 102.5 27 L 104.5 26 L 107.5 27 L 109.5 26 L 112.5 27 L 114.5 26 L 117.5 27 L 119.5 26 L 122.5 27 L 124 26.5 Q 121.8 27.8 124.5 29 L 136.5 29 L 137 27.5 L 140.5 26 L 142 26.5 L 142.5 24 Z M 136 36 L 128 39 Q 123 38 125 43 L 137 41 L 138 38 L 136 36 Z " /><path fill="rgb(222,246,193)" stroke="rgb(222,246,193)" stroke-width="1" opacity="1" d="M 96.5 103 L 98 103.5 L 95.5 105 L 96.5 103 Z " /><path fill="rgb(222,246,193)" stroke="rgb(222,246,193)" stroke-width="1" opacity="1" d="M 103.5 109 L 105 109.5 L 102 111.5 L 103.5 109 Z " /><path fill="rgb(222,246,193)" stroke="rgb(222,246,193)" stroke-width="1" opacity="1" d="M 114.5 115 L 115 118.5 L 114 118.5 L 114.5 115 Z " /><path fill="rgb(222,246,193)" stroke="rgb(222,246,193)" stroke-width="1" opacity="1" d="M 125.5 117 L 126 120 Q 123.3 121.1 124 118.5 L 125.5 117 Z " /><path fill="rgb(222,246,193)" stroke="rgb(222,246,193)" stroke-width="1" opacity="1" d="M 135.5 119 L 136 121.5 L 135 121.5 L 135.5 119 Z " /><path fill="rgb(254,181,0)" stroke="rgb(254,181,0)" stroke-width="1" opacity="1" d="M 157.5 0 L 200 0 L 200 56.5 Q 191.8 65.3 173.5 64 L 165.5 62 L 154 54.5 Q 147.4 48.1 144 38.5 L 143 22.5 Q 145.8 11.1 152 4 L 157.5 0 Z " /><path fill="rgb(254,181,0)" stroke="rgb(254,181,0)" stroke-width="1" opacity="1" d="M 131.5 1 L 141 4.5 L 139.5 7 L 130 2.5 L 131.5 1 Z " /><path fill="rgb(254,181,0)" stroke="rgb(254,181,0)" stroke-width="1" opacity="1" d="M 127.5 12 L 137 15.5 Q 137.9 18.9 132.5 17 L 126 14.5 L 127.5 12 Z " /><path fill="rgb(254,181,0)" stroke="rgb(254,181,0)" stroke-width="1" opacity="1" d="M 124 26 L 135.5 26 L 136 29 L 125.5 29 L 124 27.5 L 124 26 Z " /><path fill="rgb(254,181,0)" stroke="rgb(254,181,0)" stroke-width="1" opacity="1" d="M 134.5 37 L 138 38.5 L 134.5 41 L 126.5 43 L 125 40 L 134.5 37 Z " /><path fill="rgb(254,181,0)" stroke="rgb(254,181,0)" stroke-width="1" opacity="1" d="M 137.5 47 Q 142.3 45.3 141 49.5 L 133.5 54 L 131 54 L 132.5 50 L 137.5 47 Z " /><path fill="rgb(254,181,0)" stroke="rgb(254,181,0)" stroke-width="1" opacity="1" d="M 146.5 55 Q 149.1 54.2 148 57.5 L 141.5 64 L 139 64 L 139 61.5 L 144.5 56 L 146.5 55 Z " /><path fill="rgb(254,181,0)" stroke="rgb(254,181,0)" stroke-width="1" opacity="1" d="M 154.5 63 Q 157.8 61.9 157 64.5 L 151.5 73 L 149 71.5 L 154.5 63 Z " /><path fill="rgb(254,181,0)" stroke="rgb(254,181,0)" stroke-width="1" opacity="1" d="M 199.5 66 L 200 69.5 L 199 69.5 L 199.5 66 Z " /><path fill="rgb(254,181,0)" stroke="rgb(254,181,0)" stroke-width="1" opacity="1" d="M 164 68 Q 168.9 66.2 167 72.5 L 163.5 79 Q 160.1 79.9 162 74.5 L 164 68 Z " /><path fill="rgb(254,181,0)" stroke="rgb(254,181,0)" stroke-width="1" opacity="1" d="M 189 69 Q 193.1 67.3 192 71.5 L 194 78.5 L 191 80 L 189 69 Z " /><path fill="rgb(254,181,0)" stroke="rgb(254,181,0)" stroke-width="1" opacity="1" d="M 178.5 70 L 180 71.5 L 180 80.5 Q 178.5 83.5 177 80.5 L 177 71.5 L 178.5 70 Z " /><path fill="rgb(56,138,0)" stroke="rgb(56,138,0)" stroke-width="1" opacity="1" d="M 77.5 40 Q 80.5 39.1 79 43.5 L 78 43.5 Q 78.9 40.5 74.5 42 L 74.5 41 L 77.5 40 Z " /><path fill="rgb(56,138,0)" stroke="rgb(56,138,0)" stroke-width="1" opacity="1" d="M 70.5 43 L 69.5 45 L 70.5 43 Z " /><path fill="rgb(56,138,0)" stroke="rgb(56,138,0)" stroke-width="1" opacity="1" d="M 63.5 45 L 62.5 47 L 63.5 45 Z " /><path fill="rgb(56,138,0)" stroke="rgb(56,138,0)" stroke-width="1" opacity="1" d="M 77.5 45 L 76.5 47 L 77.5 45 Z " /><path fill="rgb(56,138,0)" stroke="rgb(56,138,0)" stroke-width="1" opacity="1" d="M 41.5 50 L 50 50.5 L 41.5 51 L 41.5 50 Z " /><path fill="rgb(56,138,0)" stroke="rgb(56,138,0)" stroke-width="1" opacity="1" d="M 78.5 50 Q 87.8 48.8 93 51.5 L 85.5 53 L 73.5 53 L 73.5 52 L 76.5 51 Q 78.3 53.8 84.5 52 L 84.5 51 L 78.5 51 L 78.5 50 Z " /><path fill="rgb(56,138,0)" stroke="rgb(56,138,0)" stroke-width="1" opacity="1" d="M 37.5 51 L 39 51.5 L 36.5 53 L 37.5 51 Z " /><path fill="rgb(56,138,0)" stroke="rgb(56,138,0)" stroke-width="1" opacity="1" d="M 65.5 52 L 64.5 54 L 63 53.5 L 65.5 52 Z " /><path fill="rgb(56,138,0)" stroke="rgb(56,138,0)" stroke-width="1" opacity="1" d="M 38.5 54 L 39.5 56 L 38.5 54 Z " /><path fill="rgb(56,138,0)" stroke="rgb(56,138,0)" stroke-width="1" opacity="1" d="M 100.5 55 L 101.5 57 L 100.5 55 Z " /><path fill="rgb(56,138,0)" stroke="rgb(56,138,0)" stroke-width="1" opacity="1" d="M 71.5 60 L 80.5 61 L 86 64.5 L 84.5 64 L 78 64.5 L 78.5 66 L 72.5 62 L 71.5 60 Z " /><path fill="rgb(56,138,0)" stroke="rgb(56,138,0)" stroke-width="1" opacity="1" d="M 44.5 61 L 47 61.5 L 36.5 71 L 41 65.5 Q 41.8 63.3 39.5 64 L 39.5 63 L 44.5 61 Z " /><path fill="rgb(56,138,0)" stroke="rgb(56,138,0)" stroke-width="1" opacity="1" d="M 66.5 61 L 71 63.5 L 68.5 65 L 66.5 61 Z " /><path fill="rgb(56,138,0)" stroke="rgb(56,138,0)" stroke-width="1" opacity="1" d="M 48.5 63 L 47.5 65 L 46 65.5 Q 48.3 66.8 45.5 68 Q 42 66 46.5 64 L 48.5 63 Z " /><path fill="rgb(56,138,0)" stroke="rgb(56,138,0)" stroke-width="1" opacity="1" d="M 56.5 63 L 56 64.5 L 55 68 Q 49 67 47.5 72 L 54.5 64 L 56.5 63 Z " /><path fill="rgb(56,138,0)" stroke="rgb(56,138,0)" stroke-width="1" opacity="1" d="M 59.5 64 L 60 75.5 L 59 75.5 Q 60.5 68.5 57.5 69 L 56 69.5 L 59.5 64 Z " /><path fill="rgb(56,138,0)" stroke="rgb(56,138,0)" stroke-width="1" opacity="1" d="M 35.5 65 L 33.5 68 L 35.5 65 Z " /><path fill="rgb(56,138,0)" stroke="rgb(56,138,0)" stroke-width="1" opacity="1" d="M 63.5 65 L 64 74.5 L 63 74.5 L 63.5 65 Z " /><path fill="rgb(56,138,0)" stroke="rgb(56,138,0)" stroke-width="1" opacity="1" d="M 74.5 65 L 75.5 67 L 74.5 65 Z " /><path fill="rgb(56,138,0)" stroke="rgb(56,138,0)" stroke-width="1" opacity="1" d="M 69.5 66 L 70.5 68 L 69.5 66 Z " /><path fill="rgb(56,138,0)" stroke="rgb(56,138,0)" stroke-width="1" opacity="1" d="M 65.5 67 L 67.5 70 L 65.5 67 Z " /><path fill="rgb(56,138,0)" stroke="rgb(56,138,0)" stroke-width="1" opacity="1" d="M 81.5 67 L 83.5 70 L 81.5 67 Z " /><path fill="rgb(56,138,0)" stroke="rgb(56,138,0)" stroke-width="1" opacity="1" d="M 40.5 69 L 39.5 71 L 40.5 69 Z " /><path fill="rgb(56,138,0)" stroke="rgb(56,138,0)" stroke-width="1" opacity="1" d="M 80.5 69 L 82.5 72 L 80.5 69 Z " /><path fill="rgb(56,138,0)" stroke="rgb(56,138,0)" stroke-width="1" opacity="1" d="M 91.5 69 L 92.5 71 L 91.5 69 Z " /><path fill="rgb(56,138,0)" stroke="rgb(56,138,0)" stroke-width="1" opacity="1" d="M 73.5 71 L 74.5 73 L 73.5 71 Z " /><path fill="rgb(56,138,0)" stroke="rgb(56,138,0)" stroke-width="1" opacity="1" d="M 69.5 72 L 70.5 74 L 69.5 72 Z " /><path fill="rgb(56,138,0)" stroke="rgb(56,138,0)" stroke-width="1" opacity="1" d="M 37.5 73 L 35.5 76 L 37.5 73 Z " /><path fill="rgb(56,138,0)" stroke="rgb(56,138,0)" stroke-width="1" opacity="1" d="M 72.5 75 L 73.5 77 L 72.5 75 Z " /><path fill="rgb(56,138,0)" stroke="rgb(56,138,0)" stroke-width="1" opacity="1" d="M 32.5 77 L 35 77.5 Q 32.9 80.8 32.5 77 Z " /><path fill="rgb(56,138,0)" stroke="rgb(56,138,0)" stroke-width="1" opacity="1" d="M 35.5 82 L 34.5 84 L 35.5 82 Z " /><path fill="rgb(56,138,0)" stroke="rgb(56,138,0)" stroke-width="1" opacity="1" d="M 43.5 85 L 44 88.5 L 43 88.5 L 43.5 85 Z " /><path fill="rgb(56,138,0)" stroke="rgb(56,138,0)" stroke-width="1" opacity="1" d="M 23.5 87 L 24 92.5 L 23 92.5 L 23.5 87 Z " /><path fill="rgb(56,138,0)" stroke="rgb(56,138,0)" stroke-width="1" opacity="1" d="M 43.5 91 L 44 93.5 L 43 93.5 L 43.5 91 Z " /><path fill="rgb(56,138,0)" stroke="rgb(56,138,0)" stroke-width="1" opacity="1" d="M 34.5 150 L 33.5 152 L 34.5 150 Z " /><path fill="rgb(56,138,0)" stroke="rgb(56,138,0)" stroke-width="1" opacity="1" d="M 31.5 153 L 30.5 155 L 31.5 153 Z " /><path fill="rgb(56,138,0)" stroke="rgb(56,138,0)" stroke-width="1" opacity="1" d="M 25.5 160 L 32.5 163 L 90 199.5 L 4 200 Q 9.9 175.8 25.5 160 Z " /><path fill="rgb(47,138,0)" stroke="rgb(47,138,0)" stroke-width="1" opacity="1" d="M 81.5 36 L 85 36.5 L 81 45.5 Q 97.7 46.3 106 55.5 Q 110.8 60.6 111 69 L 103.5 69 L 94.5 67 L 97 70.5 Q 103.5 79 105 92.5 L 103.5 92 Q 84.3 89.3 74 77.5 L 72.5 75 Q 70.3 75.8 71 73.5 L 63.5 65 L 63 79.5 L 61 86.5 Q 55.1 101.6 45.5 113 Q 42.9 113.8 44 110.5 L 40 97.5 L 39.5 84 L 27 94 L 24.5 98 L 24 79.5 Q 25.8 69.8 31.5 64 L 39 60 Q 40.1 57.3 37.5 58 L 31 52.5 Q 30.3 50.3 32.5 51 Q 37.3 45.8 47.5 46 Q 55.4 47.6 59.5 53 L 67.5 41 L 81.5 36 Z M 78 40 L 71 43 Q 65 45 64 53 L 64 54 L 77 47 L 79 44 Q 80 39 78 40 Z M 42 50 L 36 53 L 44 58 L 52 56 Q 58 58 57 54 L 50 50 L 42 50 Z M 79 50 L 73 53 L 87 53 L 97 58 Q 99 57 98 60 L 87 55 L 73 56 L 83 58 L 93 64 L 106 65 L 107 66 L 105 60 Q 98 49 79 50 Z M 72 60 L 73 62 L 85 70 L 91 78 L 90 78 L 81 69 L 68 61 L 66 62 L 73 72 Q 82 85 101 88 L 100 83 L 93 71 L 81 61 L 72 60 Z M 45 61 L 36 65 Q 29 70 27 81 L 28 90 L 31 88 L 41 78 L 47 66 L 48 64 L 41 69 L 35 77 L 33 78 L 35 73 L 47 62 L 45 61 Z M 55 64 L 47 72 L 43 86 L 43 94 L 45 102 Q 43 107 47 106 L 56 91 L 60 76 L 60 64 Q 52 73 50 88 Q 51 92 48 91 L 51 77 L 56 66 Q 57 63 55 64 Z " /><path fill="rgb(250,203,140)" stroke="rgb(250,203,140)" stroke-width="1" opacity="1" d="M 82.5 44 L 86 45.5 L 82 46 L 82.5 44 Z " /><path fill="rgb(250,203,140)" stroke="rgb(250,203,140)" stroke-width="1" opacity="1" d="M 140.5 46 L 141.5 48 L 140.5 46 Z " /><path fill="rgb(250,203,140)" stroke="rgb(250,203,140)" stroke-width="1" opacity="1" d="M 56.5 49 L 57.5 51 L 56.5 49 Z " /><path fill="rgb(250,203,140)" stroke="rgb(250,203,140)" stroke-width="1" opacity="1" d="M 150.5 50 L 152.5 53 L 150.5 50 Z " /><path fill="rgb(250,203,140)" stroke="rgb(250,203,140)" stroke-width="1" opacity="1" d="M 103.5 52 L 106.5 56 L 103.5 52 Z " /><path fill="rgb(250,203,140)" stroke="rgb(250,203,140)" stroke-width="1" opacity="1" d="M 31.5 63 L 29.5 66 L 31.5 63 Z " /><path fill="rgb(250,203,140)" stroke="rgb(250,203,140)" stroke-width="1" opacity="1" d="M 165.5 67 L 168 68.5 L 166.5 68 L 165.5 67 Z " /><path fill="rgb(250,203,140)" stroke="rgb(250,203,140)" stroke-width="1" opacity="1" d="M 180.5 72 L 181 75.5 L 180 75.5 L 180.5 72 Z " /><path fill="rgb(250,203,140)" stroke="rgb(250,203,140)" stroke-width="1" opacity="1" d="M 23.5 79 L 23 80.5 L 23 98 L 0 98 L 0 80 L 22.5 80 L 23.5 79 Z " /><path fill="rgb(250,203,140)" stroke="rgb(250,203,140)" stroke-width="1" opacity="1" d="M 102.5 79 L 103.5 80 L 175.5 80 L 179.5 82 L 181.5 80 L 200 80 L 200 97.5 L 199.5 98 L 92.5 98 L 87.5 97 L 86.5 98 L 77 98 L 73 80 L 75.5 80 L 89.5 89 L 106 94 Q 105.8 84.5 102.5 79 Z " /><path fill="rgb(250,203,140)" stroke="rgb(250,203,140)" stroke-width="1" opacity="1" d="M 63.5 81 L 66 98 L 57.5 98 L 57 96.5 L 63.5 81 Z " /><path fill="rgb(250,203,140)" stroke="rgb(250,203,140)" stroke-width="1" opacity="1" d="M 38.5 86 L 39 98 L 26 97.5 L 38.5 86 Z " /><path fill="rgb(250,203,140)" stroke="rgb(250,203,140)" stroke-width="1" opacity="1" d="M 98.5 103 L 97.5 105 L 98.5 103 Z " /><path fill="rgb(250,228,160)" stroke="rgb(250,228,160)" stroke-width="1" opacity="1" d="M 142.5 27 L 143 30.5 L 142 30.5 L 142.5 27 Z " /><path fill="rgb(250,228,160)" stroke="rgb(250,228,160)" stroke-width="1" opacity="1" d="M 44.5 45 L 47 45.5 L 44.5 46 L 44.5 45 Z " /><path fill="rgb(250,228,160)" stroke="rgb(250,228,160)" stroke-width="1" opacity="1" d="M 148.5 48 L 149.5 50 L 148.5 48 Z " /><path fill="rgb(250,228,160)" stroke="rgb(250,228,160)" stroke-width="1" opacity="1" d="M 141.5 49 L 140.5 51 L 141.5 49 Z " /><path fill="rgb(250,228,160)" stroke="rgb(250,228,160)" stroke-width="1" opacity="1" d="M 138.5 51 L 139.5 52 L 149.5 52 L 150.5 51 L 156.5 57 L 170.5 64 L 186.5 64 L 200 58 L 200 65.5 L 198 66 L 198 68.5 Q 201.3 72.4 200 80 L 194 80 L 194 74.5 L 191.5 69 L 188 70.5 L 190 80 L 181 80 L 181 72.5 L 180 70 L 176 71.5 L 176 79.5 L 175.5 80 L 103.5 80 L 96 68.5 L 97.5 68 L 104.5 70 L 112 70 Q 111.9 58.1 104 52.5 L 130 52 L 131.5 55 L 138.5 51 Z M 146 55 L 138 64 L 142 65 L 149 57 L 146 55 Z M 155 62 L 148 72 L 152 74 Q 156 71 157 64 L 155 62 Z M 166 67 L 163 70 L 161 76 Q 159 81 165 79 Q 168 75 168 69 L 166 67 Z " /><path fill="rgb(250,228,160)" stroke="rgb(250,228,160)" stroke-width="1" opacity="1" d="M 0 52 L 29.5 52 L 37 58 Q 38.1 60.7 35.5 60 L 29 65.5 L 22.5 80 L 0 80 L 0 52 Z " /><path fill="rgb(250,228,160)" stroke="rgb(250,228,160)" stroke-width="1" opacity="1" d="M 73.5 78 L 74.5 80 Q 71.7 80.7 73.5 78 Z " /><path fill="rgb(253,154,111)" stroke="rgb(253,154,111)" stroke-width="1" opacity="1" d="M 131.5 0 L 130.5 2 L 131.5 0 Z " /><path fill="rgb(253,154,111)" stroke="rgb(253,154,111)" stroke-width="1" opacity="1" d="M 126.5 12 L 126 13.5 L 127 15.5 L 125 14.5 L 126.5 12 Z " /><path fill="rgb(253,154,111)" stroke="rgb(253,154,111)" stroke-width="1" opacity="1" d="M 125.5 25 L 133 25.5 L 125.5 26 L 125.5 25 Z " /><path fill="rgb(253,154,111)" stroke="rgb(253,154,111)" stroke-width="1" opacity="1" d="M 65.5 91 L 66 93.5 L 65 93.5 L 65.5 91 Z " /><path fill="rgb(253,154,111)" stroke="rgb(253,154,111)" stroke-width="1" opacity="1" d="M 92.5 98 L 95.5 102 L 92.5 98 Z " /><path fill="rgb(253,154,111)" stroke="rgb(253,154,111)" stroke-width="1" opacity="1" d="M 66.5 100 L 67 105.5 L 66 105.5 L 66.5 100 Z " /><path fill="rgb(253,154,111)" stroke="rgb(253,154,111)" stroke-width="1" opacity="1" d="M 86.5 102 L 87.5 104 L 86.5 102 Z " /><path fill="rgb(253,154,111)" stroke="rgb(253,154,111)" stroke-width="1" opacity="1" d="M 98.5 104 L 103 109.5 L 101 110.5 L 102 108.5 L 98.5 104 Z " /><path fill="rgb(253,154,111)" stroke="rgb(253,154,111)" stroke-width="1" opacity="1" d="M 93.5 110 L 96.5 114 L 98 113.5 L 104 120.5 L 103 126 L 91.5 126 L 91 122.5 L 93.5 110 Z " /><path fill="rgb(253,154,111)" stroke="rgb(253,154,111)" stroke-width="1" opacity="1" d="M 47.5 111 L 47.5 113 L 49.5 114 L 52.5 113 L 54.5 114 L 57.5 113 L 59.5 114 L 62.5 113 L 64.5 114 Q 65.8 111.8 67 114.5 L 66 132 L 57.5 136 L 48.5 132 L 38.5 130 L 18.5 130 L 4.5 133 L 0 135 L 0 114.5 L 1.5 113 L 3.5 114 L 6.5 113 L 8.5 114 L 11.5 113 L 13.5 114 L 16.5 113 L 18.5 114 L 21.5 113 L 23.5 114 L 25.5 114 L 27.5 113 L 30.5 114 L 34.5 113 L 36.5 114 L 39.5 113 L 41.5 114 L 44 112.5 Q 43.2 115.1 46.5 114 L 47.5 111 Z " /><path fill="rgb(253,154,111)" stroke="rgb(253,154,111)" stroke-width="1" opacity="1" d="M 105.5 111 L 109.5 114 L 112.5 113 L 114.5 114 L 116.5 114 L 118.5 113 L 121.5 114 L 125.5 113 L 127.5 114 L 130.5 113 L 132.5 114 L 134.5 113 L 138.5 113 L 140.5 114 L 143.5 113 L 145.5 114 L 148.5 113 L 150.5 114 L 153.5 113 L 155.5 114 L 158.5 113 L 160.5 114 L 163.5 113 L 165.5 114 L 168.5 113 L 170.5 114 L 173.5 113 L 175.5 114 L 178.5 113 L 180.5 114 L 183.5 113 L 185.5 114 L 188.5 113 L 190.5 114 L 193.5 113 L 195.5 114 L 198.5 113 L 200 113.5 L 200 135 L 195.5 133 L 181.5 130 L 161.5 130 L 141.5 135 L 139 134 L 139 129.5 L 142 122.5 Q 140.8 119.3 137 120 L 135.5 123 L 136 121.5 L 137 118 L 134 118.5 L 135 120.5 L 134 120.5 Q 134.9 117.1 129.5 119 L 124.5 116 Q 123.3 118.2 118.5 117 L 114 115 L 113.5 117 L 113 115 Q 106.3 115.3 105.5 111 Z " /><path fill="rgb(253,154,111)" stroke="rgb(253,154,111)" stroke-width="1" opacity="1" d="M 80.5 112 L 81.5 114 L 83.5 113 L 87.5 113 Q 90.1 112.2 89 115.5 L 87 127 L 83 125.5 L 80.5 112 Z " /><path fill="rgb(253,154,111)" stroke="rgb(253,154,111)" stroke-width="1" opacity="1" d="M 107 122 L 136 126 L 135 132 L 122.5 128 L 107 126 L 107 122 Z " /><path fill="rgb(106,59,2)" stroke="rgb(106,59,2)" stroke-width="1" opacity="1" d="M 66.5 69 L 68.5 72 L 66.5 69 Z " /><path fill="rgb(106,59,2)" stroke="rgb(106,59,2)" stroke-width="1" opacity="1" d="M 69.5 73 L 72 77.5 L 75 89.5 L 75 94.5 L 84 126.5 L 82.5 128 L 78.5 128 L 66.5 132 L 66 126.5 L 67 125.5 L 67 97.5 L 63 75.5 L 65.5 75 L 69.5 73 Z " /><path fill="rgb(106,59,2)" stroke="rgb(106,59,2)" stroke-width="1" opacity="1" d="M 90 107 L 94 109.5 L 91 125.5 L 89.5 127 Q 84.9 128.3 87 122.5 L 90 107 Z " /><path fill="rgb(106,59,2)" stroke="rgb(106,59,2)" stroke-width="1" opacity="1" d="M 103 121 Q 108.6 118.8 107 124.5 L 103 126 L 103 121 Z " /><path fill="rgb(106,59,2)" stroke="rgb(106,59,2)" stroke-width="1" opacity="1" d="M 136 127 L 140 127.5 L 139 133 L 135 131.5 L 136 127 Z " /><path fill="rgb(245,24,72)" stroke="rgb(245,24,72)" stroke-width="1" opacity="1" d="M 88.5 97 L 96 102.5 Q 92.3 104.3 95.5 106 L 98.5 105 L 102 109.5 L 101 112 L 104.5 111 Q 106.7 115.9 113 115 Q 111.1 120.6 116 119 Q 114.5 115.3 117.5 116 L 124 117 Q 122.3 122.2 126 121 Q 124.3 116.9 128.5 118 L 134 119 L 135.5 123 L 137 120 Q 140.8 119.3 142 122.5 Q 142.5 126.5 139.5 127 L 107.5 122 Q 100.6 120.4 98 114.5 Q 98.8 112.3 96.5 113 L 91.5 107 L 88 104.5 L 86 99.5 L 88.5 97 Z " /><path fill="rgb(252,179,120)" stroke="rgb(252,179,120)" stroke-width="1" opacity="1" d="M 140.5 3 L 142 5.5 L 141 5.5 L 140.5 3 Z " /><path fill="rgb(252,179,120)" stroke="rgb(252,179,120)" stroke-width="1" opacity="1" d="M 136.5 14 L 138 16.5 L 136 17.5 L 137 15.5 L 136.5 14 Z " /><path fill="rgb(252,179,120)" stroke="rgb(252,179,120)" stroke-width="1" opacity="1" d="M 133.5 25 L 137 26.5 L 136.5 28 L 136 26 Q 132.7 26.8 133.5 25 Z " /><path fill="rgb(252,179,120)" stroke="rgb(252,179,120)" stroke-width="1" opacity="1" d="M 147.5 58 L 142.5 64 L 147.5 58 Z " /><path fill="rgb(252,179,120)" stroke="rgb(252,179,120)" stroke-width="1" opacity="1" d="M 176.5 72 L 177 80.5 L 176 80.5 L 176.5 72 Z " /><path fill="rgb(252,179,120)" stroke="rgb(252,179,120)" stroke-width="1" opacity="1" d="M 180.5 76 L 181 80.5 L 180 80.5 L 180.5 76 Z " /><path fill="rgb(252,179,120)" stroke="rgb(252,179,120)" stroke-width="1" opacity="1" d="M 72.5 77 L 75 78.5 L 73.5 78 L 72.5 77 Z " /><path fill="rgb(252,179,120)" stroke="rgb(252,179,120)" stroke-width="1" opacity="1" d="M 38.5 85 L 36.5 88 L 38.5 85 Z " /><path fill="rgb(252,179,120)" stroke="rgb(252,179,120)" stroke-width="1" opacity="1" d="M 39.5 93 L 40 100.5 L 43 112.5 L 40.5 114 L 37.5 113 L 35.5 114 L 32.5 113 L 30.5 114 L 26.5 114 L 24.5 113 L 22.5 113 L 20.5 114 L 17.5 113 L 15.5 114 L 12.5 113 L 10.5 114 L 7.5 113 L 5.5 114 L 2.5 113 L 0.5 114 L 0 98 L 22.5 98 L 23.5 99 Q 25 95.5 26.5 98 L 39 98 L 39.5 93 Z " /><path fill="rgb(252,179,120)" stroke="rgb(252,179,120)" stroke-width="1" opacity="1" d="M 56.5 97 L 57.5 98 L 66 98 L 67 113.5 L 63.5 113 L 61.5 114 L 58.5 113 L 56.5 114 L 53.5 113 L 51.5 114 L 48.5 113 L 46.5 114 L 48 111.5 L 56.5 97 Z " /><path fill="rgb(252,179,120)" stroke="rgb(252,179,120)" stroke-width="1" opacity="1" d="M 87.5 97 L 86 99.5 L 86 102.5 L 90 106.5 L 90 108.5 L 89 113 L 86.5 114 L 83.5 113 L 81.5 114 L 77 98 L 86.5 98 L 87.5 97 Z " /><path fill="rgb(252,179,120)" stroke="rgb(252,179,120)" stroke-width="1" opacity="1" d="M 93.5 98 L 199.5 98 L 200 98.5 L 200 113 L 197.5 114 L 194.5 113 L 192.5 114 L 189.5 113 L 187.5 114 L 184.5 113 L 182.5 114 L 179.5 113 L 177.5 114 L 174.5 113 L 172.5 114 L 169.5 113 L 167.5 114 L 164.5 113 L 162.5 114 L 159.5 113 L 157.5 114 L 154.5 113 L 152.5 114 L 149.5 113 L 147.5 114 L 144.5 113 L 142.5 114 L 139.5 113 L 137.5 114 L 134.5 113 L 131.5 114 L 128.5 113 L 126.5 114 L 123.5 113 L 121.5 114 L 117.5 114 L 115.5 113 L 113.5 113 L 111.5 114 L 108.5 113 L 105 110.5 Q 106.3 106.8 102.5 108 L 97.5 102 L 93.5 98 Z " /><path fill="rgb(252,179,120)" stroke="rgb(252,179,120)" stroke-width="1" opacity="1" d="M 124.5 116 L 127 117.5 L 125.5 117 L 124.5 116 Z " /><path fill="rgb(99,172,17)" stroke="rgb(99,172,17)" stroke-width="1" opacity="1" d="M 65.5 42 L 64.5 44 L 65.5 42 Z " /><path fill="rgb(99,172,17)" stroke="rgb(99,172,17)" stroke-width="1" opacity="1" d="M 73.5 42 Q 79.3 39.9 78 44.5 L 74.5 48 L 64.5 53 L 64 50.5 L 68.5 45 L 73.5 42 Z " /><path fill="rgb(99,172,17)" stroke="rgb(99,172,17)" stroke-width="1" opacity="1" d="M 39.5 51 Q 52.8 48.8 57 55.5 L 41.5 57 L 37 54 Q 35.9 51.3 38.5 52 L 39.5 51 Z " /><path fill="rgb(99,172,17)" stroke="rgb(99,172,17)" stroke-width="1" opacity="1" d="M 77.5 51 L 85 51.5 L 77.5 52 L 77.5 51 Z " /><path fill="rgb(99,172,17)" stroke="rgb(99,172,17)" stroke-width="1" opacity="1" d="M 86.5 52 L 94.5 52 L 104 58.5 L 107 64.5 L 104.5 65 L 89.5 63 Q 84.8 56.8 75 55.5 L 85.5 55 L 98 60 L 96.5 57 Q 93 53.5 86.5 53 L 86.5 52 Z " /><path fill="rgb(99,172,17)" stroke="rgb(99,172,17)" stroke-width="1" opacity="1" d="M 31.5 53 L 34.5 57 L 31.5 53 Z " /><path fill="rgb(99,172,17)" stroke="rgb(99,172,17)" stroke-width="1" opacity="1" d="M 106.5 56 L 107.5 58 L 106.5 56 Z " /><path fill="rgb(99,172,17)" stroke="rgb(99,172,17)" stroke-width="1" opacity="1" d="M 34.5 61 L 33.5 63 L 34.5 61 Z " /><path fill="rgb(99,172,17)" stroke="rgb(99,172,17)" stroke-width="1" opacity="1" d="M 38.5 64 Q 41.8 62.9 41 65.5 Q 35.1 70.1 32 77.5 Q 33.5 80.5 35 77.5 L 43.5 67 L 46.5 65 L 45 67.5 L 41 77.5 L 36.5 82 L 34 83.5 L 31.5 87 L 27.5 90 L 27 82.5 L 31 70.5 L 36.5 65 L 38.5 64 Z " /><path fill="rgb(99,172,17)" stroke="rgb(99,172,17)" stroke-width="1" opacity="1" d="M 69 64 Q 82.2 68.5 90.5 79 L 91 76.5 L 78 64.5 L 84.5 64 L 94 72.5 L 101 88 L 98 87.5 L 100 86.5 L 99 84 L 90.5 85 L 81.5 80 L 75 73.5 L 69 64 Z " /><path fill="rgb(99,172,17)" stroke="rgb(99,172,17)" stroke-width="1" opacity="1" d="M 51.5 68 L 54 68.5 Q 48.8 77.8 48 91.5 L 50 90.5 L 54 74.5 L 57.5 69 L 59 69.5 L 59 80.5 L 57 87.5 L 48.5 102 L 48.5 100 L 44 100 L 44 91.5 L 43 89.5 L 44 88.5 L 45 76.5 L 51.5 68 Z " /><path fill="rgb(99,172,17)" stroke="rgb(99,172,17)" stroke-width="1" opacity="1" d="M 23.5 83 L 24 86.5 L 23 86.5 L 23.5 83 Z " /><path fill="rgb(99,172,17)" stroke="rgb(99,172,17)" stroke-width="1" opacity="1" d="M 35.5 87 L 30.5 93 L 35.5 87 Z " /><path fill="rgb(99,172,17)" stroke="rgb(99,172,17)" stroke-width="1" opacity="1" d="M 23.5 93 L 24 97.5 L 23 97.5 L 23.5 93 Z " /><path fill="rgb(99,172,17)" stroke="rgb(99,172,17)" stroke-width="1" opacity="1" d="M 45.5 101 L 46.5 104 L 48 103.5 L 45 105 L 45.5 101 Z " /><path fill="rgb(99,172,17)" stroke="rgb(99,172,17)" stroke-width="1" opacity="1" d="M 50.5 106 L 49.5 108 L 50.5 106 Z " /><path fill="rgb(99,172,17)" stroke="rgb(99,172,17)" stroke-width="1" opacity="1" d="M 42.5 144 L 41.5 146 L 42.5 144 Z " /><path fill="rgb(99,172,17)" stroke="rgb(99,172,17)" stroke-width="1" opacity="1" d="M 159.5 145 L 161.5 148 L 159.5 145 Z " /><path fill="rgb(99,172,17)" stroke="rgb(99,172,17)" stroke-width="1" opacity="1" d="M 38.5 147 Q 36.8 149 40.5 151 L 119 199.5 L 90.5 200 L 26 159.5 L 29.5 155 L 38.5 147 Z " /><path fill="rgb(99,172,17)" stroke="rgb(99,172,17)" stroke-width="1" opacity="1" d="M 166.5 151 L 168.5 154 L 166.5 151 Z " /><path fill="rgb(99,172,17)" stroke="rgb(99,172,17)" stroke-width="1" opacity="1" d="M 173.5 158 L 176.5 162 L 173.5 158 Z " /><path fill="rgb(148,183,4)" stroke="rgb(148,183,4)" stroke-width="1" opacity="1" d="M 64.5 67 L 69 73.5 L 64.5 76 L 64.5 67 Z " /><path fill="rgb(148,183,4)" stroke="rgb(148,183,4)" stroke-width="1" opacity="1" d="M 92.5 84 Q 99.5 82.5 99 85.5 L 99.5 87 L 92.5 85 L 92.5 84 Z " /><path fill="rgb(148,183,4)" stroke="rgb(148,183,4)" stroke-width="1" opacity="1" d="M 39.5 85 L 40 92.5 L 39 92.5 L 39.5 85 Z " /><path fill="rgb(148,183,4)" stroke="rgb(148,183,4)" stroke-width="1" opacity="1" d="M 27.5 95 L 26.5 97 L 27.5 95 Z " /><path fill="rgb(148,183,4)" stroke="rgb(148,183,4)" stroke-width="1" opacity="1" d="M 66.5 97 L 67 99.5 L 66 99.5 L 66.5 97 Z " /><path fill="rgb(148,183,4)" stroke="rgb(148,183,4)" stroke-width="1" opacity="1" d="M 45.5 100 L 49 100.5 L 46.5 104 L 45.5 100 Z " /><path fill="rgb(148,183,4)" stroke="rgb(148,183,4)" stroke-width="1" opacity="1" d="M 56.5 136 L 65.5 140 L 161 199.5 L 119.5 200 L 38 148.5 L 56.5 136 Z " /><path fill="rgb(192,208,0)" stroke="rgb(192,208,0)" stroke-width="1" opacity="1" d="M 103.5 126 L 106 126.5 L 103.5 127 L 103.5 126 Z " /><path fill="rgb(192,208,0)" stroke="rgb(192,208,0)" stroke-width="1" opacity="1" d="M 84.5 127 L 87.5 129 L 195 196 L 196 200 L 161.5 200 L 58 135.5 L 68.5 131 L 84.5 127 Z " /><path fill="rgb(192,208,0)" stroke="rgb(192,208,0)" stroke-width="1" opacity="1" d="M 170.5 155 L 171.5 157 L 170.5 155 Z " /><path fill="rgb(233,232,0)" stroke="rgb(233,232,0)" stroke-width="1" opacity="1" d="M 156.5 0 L 153.5 4 L 156.5 0 Z " /><path fill="rgb(233,232,0)" stroke="rgb(233,232,0)" stroke-width="1" opacity="1" d="M 151.5 5 L 150.5 7 L 151.5 5 Z " /><path fill="rgb(233,232,0)" stroke="rgb(233,232,0)" stroke-width="1" opacity="1" d="M 92.5 126 Q 100.8 124.7 105.5 127 L 107.5 126 L 128.5 130 L 147.5 138 Q 165.3 148.2 178 163.5 L 190 182.5 L 195 195.5 L 193.5 196 L 158.5 173 L 86 129 Q 84.6 125 91.5 127 L 92.5 126 Z " /></svg>