<svg xmlns="http://www.w3.org/2000/svg" xmlns:xlink="http://www.w3.org/1999/xlink" width="500" zoomAndPan="magnify" viewBox="0 0 375 374.999991" height="500" preserveAspectRatio="xMidYMid meet" version="1.0"><defs><clipPath id="256fbad767"><path d="M 178.035156 181 L 262.785156 181 L 262.785156 182 L 178.035156 182 Z M 178.035156 181 " clip-rule="nonzero"/></clipPath><clipPath id="6c62042981"><path d="M 180 178.035156 L 182 178.035156 L 182 262.785156 L 180 262.785156 Z M 180 178.035156 " clip-rule="nonzero"/></clipPath><clipPath id="24dec3e5cd"><path d="M 178.035156 187 L 262.785156 187 L 262.785156 189 L 178.035156 189 Z M 178.035156 187 " clip-rule="nonzero"/></clipPath><clipPath id="bda73ef200"><path d="M 187 178.035156 L 188 178.035156 L 188 262.785156 L 187 262.785156 Z M 187 178.035156 " clip-rule="nonzero"/></clipPath><clipPath id="8320665f04"><path d="M 178.035156 194 L 262.785156 194 L 262.785156 195 L 178.035156 195 Z M 178.035156 194 " clip-rule="nonzero"/></clipPath><clipPath id="9a46433d7e"><path d="M 194 178.035156 L 195 178.035156 L 195 262.785156 L 194 262.785156 Z M 194 178.035156 " clip-rule="nonzero"/></clipPath><clipPath id="28cd75fc19"><path d="M 178.035156 201 L 262.785156 201 L 262.785156 202 L 178.035156 202 Z M 178.035156 201 " clip-rule="nonzero"/></clipPath><clipPath id="9ecb56aca9"><path d="M 200 178.035156 L 201 178.035156 L 201 262.785156 L 200 262.785156 Z M 200 178.035156 " clip-rule="nonzero"/></clipPath><clipPath id="46a74c929f"><path d="M 178.035156 207 L 262.785156 207 L 262.785156 208 L 178.035156 208 Z M 178.035156 207 " clip-rule="nonzero"/></clipPath><clipPath id="3897bff07a"><path d="M 207 178.035156 L 208 178.035156 L 208 262.785156 L 207 262.785156 Z M 207 178.035156 " clip-rule="nonzero"/></clipPath><clipPath id="4ee89f5e5a"><path d="M 178.035156 214 L 262.785156 214 L 262.785156 215 L 178.035156 215 Z M 178.035156 214 " clip-rule="nonzero"/></clipPath><clipPath id="36c292bcca"><path d="M 213 178.035156 L 214 178.035156 L 214 262.785156 L 213 262.785156 Z M 213 178.035156 " clip-rule="nonzero"/></clipPath><clipPath id="ece0bb8cb6"><path d="M 178.035156 220 L 262.785156 220 L 262.785156 221 L 178.035156 221 Z M 178.035156 220 " clip-rule="nonzero"/></clipPath><clipPath id="4816eace1b"><path d="M 220 178.035156 L 221 178.035156 L 221 262.785156 L 220 262.785156 Z M 220 178.035156 " clip-rule="nonzero"/></clipPath><clipPath id="085804dd62"><path d="M 178.035156 227 L 262.785156 227 L 262.785156 228 L 178.035156 228 Z M 178.035156 227 " clip-rule="nonzero"/></clipPath><clipPath id="228b5b0c8e"><path d="M 226 178.035156 L 228 178.035156 L 228 262.785156 L 226 262.785156 Z M 226 178.035156 " clip-rule="nonzero"/></clipPath><clipPath id="7efca9e968"><path d="M 178.035156 233 L 262.785156 233 L 262.785156 235 L 178.035156 235 Z M 178.035156 233 " clip-rule="nonzero"/></clipPath><clipPath id="1e7c847108"><path d="M 233 178.035156 L 234 178.035156 L 234 262.785156 L 233 262.785156 Z M 233 178.035156 " clip-rule="nonzero"/></clipPath><clipPath id="45e2485ecc"><path d="M 178.035156 240 L 262.785156 240 L 262.785156 241 L 178.035156 241 Z M 178.035156 240 " clip-rule="nonzero"/></clipPath><clipPath id="98fd8c50a9"><path d="M 239 178.035156 L 241 178.035156 L 241 262.785156 L 239 262.785156 Z M 239 178.035156 " clip-rule="nonzero"/></clipPath><clipPath id="37c84d6dbd"><path d="M 178.035156 246 L 262.785156 246 L 262.785156 248 L 178.035156 248 Z M 178.035156 246 " clip-rule="nonzero"/></clipPath><clipPath id="d7369e142e"><path d="M 246 178.035156 L 247 178.035156 L 247 262.785156 L 246 262.785156 Z M 246 178.035156 " clip-rule="nonzero"/></clipPath><clipPath id="e417e9d056"><path d="M 178.035156 253 L 262.785156 253 L 262.785156 254 L 178.035156 254 Z M 178.035156 253 " clip-rule="nonzero"/></clipPath><clipPath id="3f947ff3b3"><path d="M 253 178.035156 L 254 178.035156 L 254 262.785156 L 253 262.785156 Z M 253 178.035156 " clip-rule="nonzero"/></clipPath><clipPath id="3d9c1c3590"><path d="M 178.035156 260 L 262.785156 260 L 262.785156 261 L 178.035156 261 Z M 178.035156 260 " clip-rule="nonzero"/></clipPath><clipPath id="72f577fd7f"><path d="M 259 178.035156 L 260 178.035156 L 260 262.785156 L 259 262.785156 Z M 259 178.035156 " clip-rule="nonzero"/></clipPath><clipPath id="7a2dac35ff"><path d="M 0.9375 0 L 375 0 L 375 375 L 0.9375 375 Z M 0.9375 0 " clip-rule="nonzero"/></clipPath><clipPath id="c1ec7c1b78"><path d="M 0.9375 0 L 369 0 L 369 368 L 0.9375 368 Z M 0.9375 0 " clip-rule="nonzero"/></clipPath></defs><g clip-path="url(#256fbad767)"><path fill="#000000" d="M 178.148438 181.523438 C 178.085938 181.523438 178.035156 181.472656 178.035156 181.410156 C 178.035156 181.351562 178.085938 181.300781 178.148438 181.300781 L 262.675781 181.300781 C 262.738281 181.300781 262.785156 181.351562 262.785156 181.410156 C 262.785156 181.472656 262.738281 181.523438 262.675781 181.523438 Z M 178.148438 181.523438 " fill-opacity="1" fill-rule="evenodd"/></g><g clip-path="url(#6c62042981)"><path fill="#000000" d="M 180.949219 178.148438 C 180.949219 178.085938 181 178.035156 181.0625 178.035156 C 181.125 178.035156 181.175781 178.085938 181.175781 178.148438 L 181.175781 262.675781 C 181.175781 262.738281 181.125 262.785156 181.0625 262.785156 C 181 262.785156 180.949219 262.738281 180.949219 262.675781 Z M 180.949219 178.148438 " fill-opacity="1" fill-rule="evenodd"/></g><g clip-path="url(#24dec3e5cd)"><path fill="#000000" d="M 178.148438 188.132812 C 178.085938 188.132812 178.035156 188.082031 178.035156 188.019531 C 178.035156 187.960938 178.085938 187.910156 178.148438 187.910156 L 262.675781 187.910156 C 262.738281 187.910156 262.785156 187.960938 262.785156 188.019531 C 262.785156 188.082031 262.738281 188.132812 262.675781 188.132812 Z M 178.148438 188.132812 " fill-opacity="1" fill-rule="evenodd"/></g><g clip-path="url(#bda73ef200)"><path fill="#000000" d="M 187.558594 178.148438 C 187.558594 178.085938 187.609375 178.035156 187.667969 178.035156 C 187.730469 178.035156 187.78125 178.085938 187.78125 178.148438 L 187.78125 262.675781 C 187.78125 262.738281 187.730469 262.785156 187.667969 262.785156 C 187.609375 262.785156 187.558594 262.738281 187.558594 262.675781 Z M 187.558594 178.148438 " fill-opacity="1" fill-rule="evenodd"/></g><g clip-path="url(#8320665f04)"><path fill="#000000" d="M 178.148438 194.6875 C 178.085938 194.6875 178.035156 194.636719 178.035156 194.574219 C 178.035156 194.511719 178.085938 194.464844 178.148438 194.464844 L 262.675781 194.464844 C 262.738281 194.464844 262.785156 194.511719 262.785156 194.574219 C 262.785156 194.636719 262.738281 194.6875 262.675781 194.6875 Z M 178.148438 194.6875 " fill-opacity="1" fill-rule="evenodd"/></g><g clip-path="url(#9a46433d7e)"><path fill="#000000" d="M 194.113281 178.148438 C 194.113281 178.085938 194.164062 178.035156 194.222656 178.035156 C 194.285156 178.035156 194.335938 178.085938 194.335938 178.148438 L 194.335938 262.675781 C 194.335938 262.738281 194.285156 262.785156 194.222656 262.785156 C 194.164062 262.785156 194.113281 262.738281 194.113281 262.675781 Z M 194.113281 178.148438 " fill-opacity="1" fill-rule="evenodd"/></g><g clip-path="url(#28cd75fc19)"><path fill="#000000" d="M 178.148438 201.242188 C 178.085938 201.242188 178.035156 201.191406 178.035156 201.128906 C 178.035156 201.066406 178.085938 201.015625 178.148438 201.015625 L 262.675781 201.015625 C 262.738281 201.015625 262.785156 201.066406 262.785156 201.128906 C 262.785156 201.191406 262.738281 201.242188 262.675781 201.242188 Z M 178.148438 201.242188 " fill-opacity="1" fill-rule="evenodd"/></g><g clip-path="url(#9ecb56aca9)"><path fill="#000000" d="M 200.667969 178.148438 C 200.667969 178.085938 200.71875 178.035156 200.777344 178.035156 C 200.839844 178.035156 200.890625 178.085938 200.890625 178.148438 L 200.890625 262.675781 C 200.890625 262.738281 200.839844 262.785156 200.777344 262.785156 C 200.71875 262.785156 200.667969 262.738281 200.667969 262.675781 Z M 200.667969 178.148438 " fill-opacity="1" fill-rule="evenodd"/></g><g clip-path="url(#46a74c929f)"><path fill="#000000" d="M 178.148438 207.796875 C 178.085938 207.796875 178.035156 207.746094 178.035156 207.683594 C 178.035156 207.621094 178.085938 207.570312 178.148438 207.570312 L 262.675781 207.570312 C 262.738281 207.570312 262.785156 207.621094 262.785156 207.683594 C 262.785156 207.746094 262.738281 207.796875 262.675781 207.796875 Z M 178.148438 207.796875 " fill-opacity="1" fill-rule="evenodd"/></g><g clip-path="url(#3897bff07a)"><path fill="#000000" d="M 207.222656 178.148438 C 207.222656 178.085938 207.269531 178.035156 207.332031 178.035156 C 207.394531 178.035156 207.445312 178.085938 207.445312 178.148438 L 207.445312 262.675781 C 207.445312 262.738281 207.394531 262.785156 207.332031 262.785156 C 207.269531 262.785156 207.222656 262.738281 207.222656 262.675781 Z M 207.222656 178.148438 " fill-opacity="1" fill-rule="evenodd"/></g><g clip-path="url(#4ee89f5e5a)"><path fill="#000000" d="M 178.148438 214.351562 C 178.085938 214.351562 178.035156 214.300781 178.035156 214.238281 C 178.035156 214.175781 178.085938 214.125 178.148438 214.125 L 262.675781 214.125 C 262.738281 214.125 262.785156 214.175781 262.785156 214.238281 C 262.785156 214.300781 262.738281 214.351562 262.675781 214.351562 Z M 178.148438 214.351562 " fill-opacity="1" fill-rule="evenodd"/></g><g clip-path="url(#36c292bcca)"><path fill="#000000" d="M 213.773438 178.148438 C 213.773438 178.085938 213.824219 178.035156 213.886719 178.035156 C 213.949219 178.035156 214 178.085938 214 178.148438 L 214 262.675781 C 214 262.738281 213.949219 262.785156 213.886719 262.785156 C 213.824219 262.785156 213.773438 262.738281 213.773438 262.675781 Z M 213.773438 178.148438 " fill-opacity="1" fill-rule="evenodd"/></g><g clip-path="url(#ece0bb8cb6)"><path fill="#000000" d="M 178.148438 220.90625 C 178.085938 220.90625 178.035156 220.855469 178.035156 220.792969 C 178.035156 220.730469 178.085938 220.679688 178.148438 220.679688 L 262.675781 220.679688 C 262.738281 220.679688 262.785156 220.730469 262.785156 220.792969 C 262.785156 220.855469 262.738281 220.90625 262.675781 220.90625 Z M 178.148438 220.90625 " fill-opacity="1" fill-rule="evenodd"/></g><g clip-path="url(#4816eace1b)"><path fill="#000000" d="M 220.328125 178.148438 C 220.328125 178.085938 220.378906 178.035156 220.441406 178.035156 C 220.503906 178.035156 220.554688 178.085938 220.554688 178.148438 L 220.554688 262.675781 C 220.554688 262.738281 220.503906 262.785156 220.441406 262.785156 C 220.378906 262.785156 220.328125 262.738281 220.328125 262.675781 Z M 220.328125 178.148438 " fill-opacity="1" fill-rule="evenodd"/></g><g clip-path="url(#085804dd62)"><path fill="#000000" d="M 178.148438 227.460938 C 178.085938 227.460938 178.035156 227.410156 178.035156 227.347656 C 178.035156 227.285156 178.085938 227.234375 178.148438 227.234375 L 262.675781 227.234375 C 262.738281 227.234375 262.785156 227.285156 262.785156 227.347656 C 262.785156 227.410156 262.738281 227.460938 262.675781 227.460938 Z M 178.148438 227.460938 " fill-opacity="1" fill-rule="evenodd"/></g><g clip-path="url(#228b5b0c8e)"><path fill="#000000" d="M 226.882812 178.148438 C 226.882812 178.085938 226.933594 178.035156 226.996094 178.035156 C 227.058594 178.035156 227.109375 178.085938 227.109375 178.148438 L 227.109375 262.675781 C 227.109375 262.738281 227.058594 262.785156 226.996094 262.785156 C 226.933594 262.785156 226.882812 262.738281 226.882812 262.675781 Z M 226.882812 178.148438 " fill-opacity="1" fill-rule="evenodd"/></g><g clip-path="url(#7efca9e968)"><path fill="#000000" d="M 178.148438 234.015625 C 178.085938 234.015625 178.035156 233.964844 178.035156 233.902344 C 178.035156 233.839844 178.085938 233.789062 178.148438 233.789062 L 262.675781 233.789062 C 262.738281 233.789062 262.785156 233.839844 262.785156 233.902344 C 262.785156 233.964844 262.738281 234.015625 262.675781 234.015625 Z M 178.148438 234.015625 " fill-opacity="1" fill-rule="evenodd"/></g><g clip-path="url(#1e7c847108)"><path fill="#000000" d="M 233.4375 178.148438 C 233.4375 178.085938 233.488281 178.035156 233.550781 178.035156 C 233.613281 178.035156 233.664062 178.085938 233.664062 178.148438 L 233.664062 262.675781 C 233.664062 262.738281 233.613281 262.785156 233.550781 262.785156 C 233.488281 262.785156 233.4375 262.738281 233.4375 262.675781 Z M 233.4375 178.148438 " fill-opacity="1" fill-rule="evenodd"/></g><g clip-path="url(#45e2485ecc)"><path fill="#000000" d="M 178.148438 240.570312 C 178.085938 240.570312 178.035156 240.519531 178.035156 240.457031 C 178.035156 240.394531 178.085938 240.34375 178.148438 240.34375 L 262.675781 240.34375 C 262.738281 240.34375 262.785156 240.394531 262.785156 240.457031 C 262.785156 240.519531 262.738281 240.570312 262.675781 240.570312 Z M 178.148438 240.570312 " fill-opacity="1" fill-rule="evenodd"/></g><g clip-path="url(#98fd8c50a9)"><path fill="#000000" d="M 239.992188 178.148438 C 239.992188 178.085938 240.042969 178.035156 240.105469 178.035156 C 240.167969 178.035156 240.21875 178.085938 240.21875 178.148438 L 240.21875 262.675781 C 240.21875 262.738281 240.167969 262.785156 240.105469 262.785156 C 240.042969 262.785156 239.992188 262.738281 239.992188 262.675781 Z M 239.992188 178.148438 " fill-opacity="1" fill-rule="evenodd"/></g><g clip-path="url(#37c84d6dbd)"><path fill="#000000" d="M 178.148438 247.125 C 178.085938 247.125 178.035156 247.074219 178.035156 247.011719 C 178.035156 246.949219 178.085938 246.898438 178.148438 246.898438 L 262.675781 246.898438 C 262.738281 246.898438 262.785156 246.949219 262.785156 247.011719 C 262.785156 247.074219 262.738281 247.125 262.675781 247.125 Z M 178.148438 247.125 " fill-opacity="1" fill-rule="evenodd"/></g><g clip-path="url(#d7369e142e)"><path fill="#000000" d="M 246.546875 178.148438 C 246.546875 178.085938 246.597656 178.035156 246.660156 178.035156 C 246.722656 178.035156 246.773438 178.085938 246.773438 178.148438 L 246.773438 262.675781 C 246.773438 262.738281 246.722656 262.785156 246.660156 262.785156 C 246.597656 262.785156 246.546875 262.738281 246.546875 262.675781 Z M 246.546875 178.148438 " fill-opacity="1" fill-rule="evenodd"/></g><g clip-path="url(#e417e9d056)"><path fill="#000000" d="M 178.148438 253.679688 C 178.085938 253.679688 178.035156 253.628906 178.035156 253.566406 C 178.035156 253.503906 178.085938 253.453125 178.148438 253.453125 L 262.675781 253.453125 C 262.738281 253.453125 262.785156 253.503906 262.785156 253.566406 C 262.785156 253.628906 262.738281 253.679688 262.675781 253.679688 Z M 178.148438 253.679688 " fill-opacity="1" fill-rule="evenodd"/></g><g clip-path="url(#3f947ff3b3)"><path fill="#000000" d="M 253.101562 178.148438 C 253.101562 178.085938 253.152344 178.035156 253.214844 178.035156 C 253.277344 178.035156 253.328125 178.085938 253.328125 178.148438 L 253.328125 262.675781 C 253.328125 262.738281 253.277344 262.785156 253.214844 262.785156 C 253.152344 262.785156 253.101562 262.738281 253.101562 262.675781 Z M 253.101562 178.148438 " fill-opacity="1" fill-rule="evenodd"/></g><g clip-path="url(#3d9c1c3590)"><path fill="#000000" d="M 178.148438 260.234375 C 178.085938 260.234375 178.035156 260.183594 178.035156 260.121094 C 178.035156 260.058594 178.085938 260.007812 178.148438 260.007812 L 262.675781 260.007812 C 262.738281 260.007812 262.785156 260.058594 262.785156 260.121094 C 262.785156 260.183594 262.738281 260.234375 262.675781 260.234375 Z M 178.148438 260.234375 " fill-opacity="1" fill-rule="evenodd"/></g><g clip-path="url(#72f577fd7f)"><path fill="#000000" d="M 259.65625 178.148438 C 259.65625 178.085938 259.707031 178.035156 259.769531 178.035156 C 259.832031 178.035156 259.882812 178.085938 259.882812 178.148438 L 259.882812 262.675781 C 259.882812 262.738281 259.832031 262.785156 259.769531 262.785156 C 259.707031 262.785156 259.65625 262.738281 259.65625 262.675781 Z M 259.65625 178.148438 " fill-opacity="1" fill-rule="evenodd"/></g><g clip-path="url(#7a2dac35ff)"><path fill="#000000" d="M 368.457031 205.402344 L 375.1875 217.5625 L 367.582031 250.871094 L 278.824219 230.613281 C 277.914062 232.6875 276.933594 234.726562 275.875 236.726562 L 338.171875 286.386719 L 340.894531 282.957031 L 347.054688 293.46875 L 325.746094 320.179688 L 316.121094 314.023438 L 316.859375 313.097656 L 254.546875 263.421875 C 252.824219 264.886719 251.082031 266.3125 249.261719 267.648438 L 288.765625 349.652344 L 257.960938 364.480469 L 246.609375 358.121094 L 253.34375 354.878906 L 218.460938 282.496094 C 216.289062 283.070312 214.082031 283.570312 211.855469 283.976562 L 211.855469 374.992188 L 177.675781 374.992188 L 164.824219 367.707031 L 177.675781 367.707031 L 177.675781 283.976562 C 175.433594 283.570312 173.226562 283.070312 171.054688 282.496094 L 131.554688 364.480469 L 100.769531 349.652344 L 86.988281 340.882812 L 101.601562 347.925781 L 140.269531 267.648438 C 138.453125 266.3125 136.691406 264.886719 134.984375 263.421875 L 63.789062 320.179688 L 53.273438 314.023438 L 56.703125 311.300781 L 42.460938 293.46875 L 113.65625 236.726562 C 112.601562 234.726562 111.617188 232.6875 110.707031 230.613281 L 21.949219 250.871094 L 9.785156 244.144531 L 19.890625 241.824219 L 14.347656 217.5625 L 103.125 197.300781 C 103.085938 196.171875 103.050781 195.058594 103.050781 193.929688 C 103.050781 192.777344 103.085938 191.667969 103.125 190.535156 L 14.347656 170.277344 L 0.9375 162.324219 L 15.402344 165.625 L 21.949219 136.964844 L 110.707031 157.226562 C 111.617188 155.148438 112.601562 153.109375 113.65625 151.128906 L 42.460938 94.386719 L 63.789062 67.675781 L 134.984375 124.417969 C 136.691406 122.953125 138.453125 121.523438 140.269531 120.191406 L 100.769531 38.1875 L 128.125 25.023438 L 122.800781 9.601562 L 131.554688 23.375 L 171.054688 105.363281 C 173.226562 104.769531 175.433594 104.285156 177.675781 103.859375 L 177.675781 12.847656 L 204.105469 12.847656 L 204.105469 0 L 204.566406 0 L 211.855469 12.847656 L 211.855469 103.859375 C 214.082031 104.285156 216.289062 104.769531 218.460938 105.363281 L 257.960938 23.375 L 276.96875 32.515625 L 278.082031 28.304688 L 282.421875 26.839844 L 288.765625 38.1875 L 249.261719 120.191406 C 251.082031 121.523438 252.824219 122.953125 254.546875 124.417969 L 325.746094 67.675781 L 339.96875 85.507812 L 340.894531 84.769531 L 347.054688 94.386719 L 275.875 151.128906 C 276.933594 153.109375 277.914062 155.148438 278.824219 157.226562 L 362.910156 138.042969 L 359.609375 123.582031 L 367.582031 136.964844 L 375.1875 170.277344 L 286.390625 190.535156 C 286.445312 191.667969 286.484375 192.777344 286.484375 193.929688 C 286.484375 195.058594 286.445312 196.171875 286.390625 197.300781 L 366.15625 215.503906 Z M 368.457031 205.402344 " fill-opacity="1" fill-rule="nonzero"/></g><path fill="#f68757" d="M 276.421875 183.863281 C 276.421875 182.726562 276.375 181.601562 276.335938 180.480469 L 365.121094 160.222656 L 357.515625 126.914062 L 268.753906 147.164062 C 267.84375 145.089844 266.863281 143.054688 265.808594 141.058594 L 336.992188 84.320312 L 315.683594 57.609375 L 244.476562 114.363281 C 242.765625 112.894531 241.011719 111.472656 239.195312 110.128906 L 278.699219 28.132812 L 247.90625 13.308594 L 208.402344 95.292969 C 206.230469 94.714844 204.027344 94.21875 201.789062 93.800781 L 201.789062 2.789062 L 167.609375 2.789062 L 167.609375 93.800781 C 165.375 94.222656 163.171875 94.71875 160.996094 95.292969 L 121.492188 13.308594 L 90.699219 28.132812 L 130.203125 110.128906 C 128.386719 111.472656 126.632812 112.894531 124.917969 114.363281 L 53.714844 57.609375 L 32.40625 84.320312 L 103.589844 141.058594 C 102.535156 143.050781 101.554688 145.085938 100.644531 147.164062 L 11.882812 126.914062 L 4.273438 160.222656 L 93.0625 180.480469 C 93.023438 181.601562 92.976562 182.726562 92.976562 183.863281 C 92.976562 184.996094 93.023438 186.121094 93.0625 187.246094 L 4.273438 207.5 L 11.882812 240.808594 L 100.644531 220.558594 C 101.554688 222.632812 102.535156 224.667969 103.589844 226.664062 L 32.40625 283.402344 L 53.714844 310.113281 L 124.921875 253.359375 C 126.632812 254.832031 128.386719 256.25 130.203125 257.59375 L 90.699219 339.589844 L 121.492188 354.414062 L 160.996094 272.429688 C 163.167969 273.007812 165.371094 273.507812 167.609375 273.921875 L 167.609375 364.933594 L 201.789062 364.933594 L 201.789062 273.921875 C 204.023438 273.503906 206.226562 273.003906 208.402344 272.429688 L 247.90625 354.414062 L 278.699219 339.589844 L 239.195312 257.59375 C 241.011719 256.25 242.765625 254.832031 244.476562 253.359375 L 315.683594 310.113281 L 336.992188 283.402344 L 265.808594 226.664062 C 266.863281 224.671875 267.84375 222.636719 268.753906 220.558594 L 357.515625 240.808594 L 365.121094 207.5 L 276.335938 187.246094 C 276.375 186.121094 276.421875 184.996094 276.421875 183.863281 Z M 276.421875 183.863281 " fill-opacity="1" fill-rule="nonzero"/><g clip-path="url(#c1ec7c1b78)"><path fill="#000000" d="M 204.570312 367.714844 L 164.824219 367.714844 L 164.824219 276.203125 C 164.046875 276.035156 163.277344 275.863281 162.515625 275.679688 L 122.792969 358.125 L 86.984375 340.890625 L 126.710938 258.433594 C 126.105469 257.957031 125.492188 257.464844 124.871094 256.953125 L 53.277344 314.019531 L 28.496094 282.964844 L 100.074219 225.90625 C 99.722656 225.203125 99.382812 224.492188 99.046875 223.777344 L 9.789062 244.136719 L 0.945312 205.410156 L 90.210938 185.042969 C 90.203125 184.652344 90.199219 184.257812 90.195312 183.863281 C 90.195312 183.464844 90.203125 183.074219 90.210938 182.679688 L 0.945312 162.316406 L 9.789062 123.585938 L 99.046875 143.949219 C 99.382812 143.230469 99.722656 142.519531 100.074219 141.816406 L 28.496094 84.761719 L 53.277344 53.703125 L 124.871094 110.769531 C 125.492188 110.257812 126.105469 109.765625 126.710938 109.289062 L 86.984375 26.835938 L 122.792969 9.597656 L 162.515625 92.042969 C 163.277344 91.863281 164.046875 91.6875 164.824219 91.523438 L 164.824219 0.0078125 L 204.570312 0.0078125 L 204.570312 91.523438 C 205.351562 91.6875 206.121094 91.863281 206.882812 92.042969 L 246.605469 9.597656 L 282.414062 26.835938 L 242.6875 109.289062 C 243.292969 109.765625 243.90625 110.257812 244.527344 110.769531 L 316.121094 53.703125 L 340.902344 84.761719 L 269.324219 141.816406 C 269.675781 142.519531 270.015625 143.230469 270.351562 143.949219 L 359.609375 123.585938 L 368.453125 162.316406 L 279.1875 182.679688 C 279.195312 183.074219 279.203125 183.464844 279.203125 183.863281 C 279.203125 184.257812 279.195312 184.652344 279.1875 185.042969 L 368.453125 205.410156 L 359.609375 244.136719 L 270.351562 223.777344 C 270.015625 224.492188 269.675781 225.203125 269.324219 225.90625 L 340.902344 282.964844 L 316.121094 314.019531 L 244.527344 256.953125 C 243.90625 257.464844 243.292969 257.957031 242.6875 258.433594 L 282.414062 340.890625 L 246.605469 358.125 L 206.882812 275.679688 C 206.121094 275.863281 205.351562 276.035156 204.570312 276.203125 Z M 170.390625 362.152344 L 199.007812 362.152344 L 199.007812 271.617188 L 201.273438 271.191406 C 203.488281 270.773438 205.644531 270.285156 207.6875 269.742188 L 209.910156 269.148438 L 249.203125 350.703125 L 274.988281 338.292969 L 235.6875 256.726562 L 237.539062 255.359375 C 239.199219 254.132812 240.875 252.789062 242.664062 251.25 L 244.410156 249.75 L 315.242188 306.207031 L 333.085938 283.84375 L 262.273438 227.398438 L 263.351562 225.363281 C 264.363281 223.449219 265.324219 221.457031 266.207031 219.445312 L 267.128906 217.335938 L 355.421875 237.476562 L 361.792969 209.59375 L 273.46875 189.445312 L 273.5625 186.917969 C 273.601562 185.902344 273.636719 184.886719 273.636719 183.863281 C 273.636719 182.835938 273.601562 181.824219 273.5625 180.808594 L 273.46875 178.28125 L 361.792969 158.132812 L 355.421875 130.246094 L 267.128906 150.386719 L 266.207031 148.277344 C 265.328125 146.273438 264.367188 144.28125 263.351562 142.359375 L 262.273438 140.324219 L 333.085938 83.878906 L 315.242188 61.515625 L 244.410156 117.976562 L 242.664062 116.472656 C 240.878906 114.933594 239.203125 113.589844 237.539062 112.363281 L 235.6875 110.992188 L 274.988281 29.433594 L 249.203125 17.019531 L 209.910156 98.574219 L 207.6875 97.980469 C 205.644531 97.4375 203.488281 96.949219 201.273438 96.53125 L 199.007812 96.105469 L 199.007812 5.570312 L 170.390625 5.570312 L 170.390625 96.105469 L 168.125 96.53125 C 165.910156 96.949219 163.753906 97.4375 161.710938 97.980469 L 159.488281 98.574219 L 120.195312 17.019531 L 94.410156 29.433594 L 133.707031 110.992188 L 131.859375 112.363281 C 130.195312 113.589844 128.519531 114.933594 126.734375 116.472656 L 124.988281 117.976562 L 54.15625 61.515625 L 36.3125 83.878906 L 107.125 140.324219 L 106.046875 142.359375 C 105.035156 144.277344 104.074219 146.269531 103.191406 148.28125 L 102.269531 150.386719 L 13.976562 130.246094 L 7.605469 158.132812 L 95.925781 178.28125 L 95.835938 180.835938 C 95.796875 181.84375 95.761719 182.847656 95.761719 183.863281 C 95.761719 184.875 95.796875 185.882812 95.835938 186.886719 L 95.925781 189.445312 L 7.605469 209.59375 L 13.976562 237.476562 L 102.269531 217.335938 L 103.191406 219.445312 C 104.074219 221.457031 105.035156 223.449219 106.046875 225.363281 L 107.125 227.398438 L 36.3125 283.84375 L 54.15625 306.207031 L 124.988281 249.75 L 126.734375 251.25 C 128.523438 252.789062 130.199219 254.132812 131.859375 255.359375 L 133.707031 256.730469 L 94.410156 338.292969 L 120.195312 350.703125 L 159.488281 269.148438 L 161.710938 269.742188 C 163.753906 270.285156 165.910156 270.773438 168.125 271.191406 L 170.390625 271.617188 Z M 170.390625 362.152344 " fill-opacity="1" fill-rule="nonzero"/></g></svg>